<svg width="269" height="45" viewBox="0 0 269 45" fill="none" xmlns="http://www.w3.org/2000/svg">
<path d="M30.918 30.0669H12.8906C10.9505 30.0669 9.1862 29.7023 7.59766 28.9731C6.00911 28.2439 4.64844 27.2479 3.51562 25.9848C2.39583 24.7218 1.52995 23.2374 0.917969 21.5317C0.30599 19.826 0 18.0031 0 16.063C0 14.1359 0.30599 12.326 0.917969 10.6333C1.52995 8.92754 2.39583 7.44317 3.51562 6.18015C4.64844 4.9041 6.00911 3.9015 7.59766 3.17233C9.1862 2.43015 10.9505 2.05905 12.8906 2.05905H30.918V6.06296H12.8906C11.5104 6.06296 10.2669 6.32989 9.16016 6.86374C8.06641 7.38457 7.13542 8.10072 6.36719 9.01218C5.61198 9.91061 5.02604 10.9653 4.60938 12.1762C4.20573 13.3872 4.00391 14.6827 4.00391 16.063C4.00391 17.4432 4.20573 18.7452 4.60938 19.9692C5.02604 21.1801 5.61198 22.2413 6.36719 23.1528C7.13542 24.0512 8.06641 24.7609 9.16016 25.2817C10.2669 25.8025 11.5104 26.063 12.8906 26.063H30.918V30.0669Z" fill="#8083FF"/>
<path d="M40.293 3.07468C40.293 3.49134 40.2148 3.88197 40.0586 4.24655C39.9023 4.59811 39.6875 4.91061 39.4141 5.18405C39.1406 5.45749 38.8216 5.67233 38.457 5.82858C38.0924 5.98483 37.7083 6.06296 37.3047 6.06296C36.888 6.06296 36.4974 5.98483 36.1328 5.82858C35.7682 5.67233 35.4492 5.45749 35.1758 5.18405C34.9023 4.91061 34.6875 4.59811 34.5312 4.24655C34.375 3.88197 34.2969 3.49134 34.2969 3.07468C34.2969 2.67103 34.375 2.28692 34.5312 1.92233C34.6875 1.55775 34.9023 1.23874 35.1758 0.965302C35.4492 0.691864 35.7682 0.47702 36.1328 0.32077C36.4974 0.151499 36.888 0.066864 37.3047 0.066864C37.7083 0.066864 38.0924 0.151499 38.457 0.32077C38.8216 0.47702 39.1406 0.691864 39.4141 0.965302C39.6875 1.23874 39.9023 1.55775 40.0586 1.92233C40.2148 2.28692 40.293 2.67103 40.293 3.07468ZM39.2969 30.0669H35.293V8.07468H39.2969V30.0669Z" fill="#8083FF"/>
<path d="M52.793 30.0669H48.7891V12.0591H42.793V8.07468H48.7891V0.066864H52.793V8.07468H66.7969V12.0591H52.793V30.0669Z" fill="#8083FF"/>
<path d="M95.5078 31.063C95.5078 32.0395 95.3255 32.951 94.9609 33.7973C94.5964 34.6437 94.0951 35.3859 93.457 36.0239C92.832 36.6619 92.0898 37.1632 91.2305 37.5278C90.3841 37.8924 89.4792 38.0747 88.5156 38.0747H72.5195V34.0708H88.5156C88.9193 34.0708 89.3034 33.9926 89.668 33.8364C90.0326 33.6801 90.3516 33.4653 90.625 33.1919C90.8984 32.9184 91.1133 32.5994 91.2695 32.2348C91.4258 31.8702 91.5039 31.4796 91.5039 31.063V30.0669H80.5078C78.9974 30.0669 77.5781 29.7804 76.25 29.2075C74.9219 28.6216 73.763 27.8338 72.7734 26.8442C71.7969 25.8416 71.0221 24.6762 70.4492 23.3481C69.8763 22.007 69.5898 20.5812 69.5898 19.0708V8.07468H73.5938V19.0708C73.5938 20.0343 73.7695 20.9393 74.1211 21.7856C74.4857 22.6189 74.9805 23.3546 75.6055 23.9926C76.2305 24.6176 76.9596 25.1189 77.793 25.4966C78.6393 25.8611 79.5443 26.0499 80.5078 26.063H91.5039V8.07468H95.5078V31.063Z" fill="#8083FF"/>
<path d="M137.832 19.9887C137.832 21.382 137.565 22.6906 137.031 23.9145C136.51 25.1385 135.794 26.2062 134.883 27.1176C133.971 28.0291 132.904 28.7518 131.68 29.2856C130.456 29.8064 129.147 30.0669 127.754 30.0669C126.921 30.0669 126.113 29.9757 125.332 29.7934C124.564 29.5981 123.835 29.3312 123.145 28.9926C122.454 28.6411 121.81 28.2179 121.211 27.7231C120.625 27.2283 120.098 26.6749 119.629 26.063C118.704 27.2869 117.546 28.2635 116.152 28.9926C114.759 29.7088 113.229 30.0669 111.562 30.0669C110.169 30.0669 108.861 29.8064 107.637 29.2856C106.413 28.7518 105.345 28.0291 104.434 27.1176C103.522 26.2062 102.799 25.1385 102.266 23.9145C101.745 22.6906 101.484 21.382 101.484 19.9887V2.05905H105.469V19.9887C105.469 20.8351 105.625 21.6294 105.938 22.3716C106.263 23.1007 106.699 23.7387 107.246 24.2856C107.806 24.8325 108.451 25.2687 109.18 25.5942C109.922 25.9067 110.716 26.063 111.562 26.063C112.383 26.063 113.151 25.9132 113.867 25.6137C114.596 25.3143 115.228 24.9041 115.762 24.3833C116.309 23.8624 116.745 23.2505 117.07 22.5473C117.409 21.8312 117.598 21.0695 117.637 20.2622V2.05905H121.68V19.9887C121.68 20.8351 121.836 21.6294 122.148 22.3716C122.474 23.1007 122.91 23.7387 123.457 24.2856C124.004 24.8325 124.642 25.2687 125.371 25.5942C126.113 25.9067 126.908 26.063 127.754 26.063C128.587 26.063 129.375 25.9067 130.117 25.5942C130.859 25.2687 131.504 24.8325 132.051 24.2856C132.611 23.7387 133.047 23.1007 133.359 22.3716C133.685 21.6294 133.848 20.8351 133.848 19.9887V2.05905H137.832V19.9887Z" fill="#8083FF"/>
<path d="M169.746 30.0669H165.742V19.0708C165.742 18.1072 165.56 17.2023 165.195 16.3559C164.831 15.5096 164.336 14.7739 163.711 14.1489C163.086 13.5109 162.35 13.0096 161.504 12.645C160.671 12.2674 159.772 12.0721 158.809 12.0591H147.812V30.0669H143.809V0.066864H147.812V8.07468H158.809C160.319 8.07468 161.738 8.36765 163.066 8.95358C164.395 9.5265 165.553 10.3143 166.543 11.3169C167.533 12.3064 168.314 13.4718 168.887 14.813C169.46 16.1411 169.746 17.5604 169.746 19.0708V30.0669Z" fill="#8083FF"/>
<path d="M200.742 15.0669C200.742 16.0434 200.56 16.9549 200.195 17.8012C199.831 18.6476 199.329 19.3898 198.691 20.0278C198.066 20.6528 197.324 21.1476 196.465 21.5122C195.618 21.8768 194.714 22.0591 193.75 22.0591H178.418C178.704 22.645 179.062 23.1854 179.492 23.6801C179.922 24.1749 180.404 24.5981 180.938 24.9497C181.471 25.3012 182.051 25.5747 182.676 25.77C183.314 25.9653 183.978 26.063 184.668 26.063H197.754V30.0669H184.668C183.158 30.0538 181.738 29.7609 180.41 29.188C179.082 28.602 177.923 27.8143 176.934 26.8247C175.957 25.8221 175.182 24.6567 174.609 23.3286C174.036 22.0005 173.75 20.5812 173.75 19.0708C173.75 17.5604 174.036 16.1411 174.609 14.813C175.182 13.4848 175.957 12.326 176.934 11.3364C177.923 10.3338 179.082 9.54603 180.41 8.97311C181.738 8.38718 183.158 8.0877 184.668 8.07468H193.75C194.714 8.07468 195.618 8.25697 196.465 8.62155C197.324 8.98613 198.066 9.48744 198.691 10.1255C199.329 10.7505 199.831 11.4861 200.195 12.3325C200.56 13.1788 200.742 14.0903 200.742 15.0669ZM193.75 18.0747C194.154 18.0747 194.538 17.9966 194.902 17.8403C195.267 17.6841 195.586 17.4692 195.859 17.1958C196.133 16.9223 196.348 16.6033 196.504 16.2387C196.66 15.8742 196.738 15.4835 196.738 15.0669C196.738 14.6632 196.66 14.2791 196.504 13.9145C196.348 13.5499 196.133 13.2309 195.859 12.9575C195.586 12.6841 195.267 12.4692 194.902 12.313C194.538 12.1437 194.154 12.0591 193.75 12.0591H184.668C183.783 12.0591 182.949 12.2153 182.168 12.5278C181.4 12.8403 180.71 13.27 180.098 13.8169C179.499 14.3507 178.997 14.9887 178.594 15.7309C178.203 16.4601 177.949 17.2413 177.832 18.0747H193.75Z" fill="#8083FF"/>
<path d="M230.273 15.0669C230.273 16.0434 230.091 16.9549 229.727 17.8012C229.362 18.6476 228.861 19.3898 228.223 20.0278C227.598 20.6528 226.855 21.1476 225.996 21.5122C225.15 21.8768 224.245 22.0591 223.281 22.0591H207.949C208.236 22.645 208.594 23.1854 209.023 23.6801C209.453 24.1749 209.935 24.5981 210.469 24.9497C211.003 25.3012 211.582 25.5747 212.207 25.77C212.845 25.9653 213.509 26.063 214.199 26.063H227.285V30.0669H214.199C212.689 30.0538 211.27 29.7609 209.941 29.188C208.613 28.602 207.454 27.8143 206.465 26.8247C205.488 25.8221 204.714 24.6567 204.141 23.3286C203.568 22.0005 203.281 20.5812 203.281 19.0708C203.281 17.5604 203.568 16.1411 204.141 14.813C204.714 13.4848 205.488 12.326 206.465 11.3364C207.454 10.3338 208.613 9.54603 209.941 8.97311C211.27 8.38718 212.689 8.0877 214.199 8.07468H223.281C224.245 8.07468 225.15 8.25697 225.996 8.62155C226.855 8.98613 227.598 9.48744 228.223 10.1255C228.861 10.7505 229.362 11.4861 229.727 12.3325C230.091 13.1788 230.273 14.0903 230.273 15.0669ZM223.281 18.0747C223.685 18.0747 224.069 17.9966 224.434 17.8403C224.798 17.6841 225.117 17.4692 225.391 17.1958C225.664 16.9223 225.879 16.6033 226.035 16.2387C226.191 15.8742 226.27 15.4835 226.27 15.0669C226.27 14.6632 226.191 14.2791 226.035 13.9145C225.879 13.5499 225.664 13.2309 225.391 12.9575C225.117 12.6841 224.798 12.4692 224.434 12.313C224.069 12.1437 223.685 12.0591 223.281 12.0591H214.199C213.314 12.0591 212.48 12.2153 211.699 12.5278C210.931 12.8403 210.241 13.27 209.629 13.8169C209.03 14.3507 208.529 14.9887 208.125 15.7309C207.734 16.4601 207.48 17.2413 207.363 18.0747H223.281Z" fill="#8083FF"/>
<path d="M242.051 30.0669H241.055C240.078 30.0669 239.167 29.8846 238.32 29.52C237.474 29.1554 236.732 28.6606 236.094 28.0356C235.456 27.3976 234.954 26.6554 234.59 25.8091C234.225 24.9497 234.043 24.0382 234.043 23.0747V0.066864H238.047V23.0747C238.047 23.4913 238.125 23.882 238.281 24.2466C238.438 24.5981 238.652 24.9106 238.926 25.1841C239.199 25.4575 239.518 25.6723 239.883 25.8286C240.247 25.9848 240.638 26.063 241.055 26.063H242.051V30.0669Z" fill="#8083FF"/>
<path d="M268.496 23.0747C268.496 24.0382 268.314 24.9497 267.949 25.8091C267.585 26.6554 267.083 27.3976 266.445 28.0356C265.82 28.6606 265.078 29.1554 264.219 29.52C263.372 29.8846 262.467 30.0669 261.504 30.0669H244.492V26.063H261.504C261.908 26.063 262.292 25.9848 262.656 25.8286C263.021 25.6723 263.34 25.4575 263.613 25.1841C263.887 24.9106 264.102 24.5981 264.258 24.2466C264.414 23.882 264.492 23.4913 264.492 23.0747C264.492 22.671 264.414 22.2869 264.258 21.9223C264.102 21.5577 263.887 21.2387 263.613 20.9653C263.34 20.6919 263.021 20.477 262.656 20.3208C262.292 20.1515 261.908 20.0669 261.504 20.0669H250.488C249.655 20.0669 248.874 19.9106 248.145 19.5981C247.415 19.2856 246.777 18.8624 246.23 18.3286C245.697 17.7817 245.273 17.1437 244.961 16.4145C244.648 15.6854 244.492 14.9041 244.492 14.0708C244.492 13.2374 244.648 12.4562 244.961 11.727C245.273 10.9979 245.697 10.3663 246.23 9.83249C246.777 9.28561 247.415 8.85593 248.145 8.54343C248.874 8.23093 249.655 8.07468 250.488 8.07468H266.504V12.0591H250.488C249.928 12.0591 249.453 12.2544 249.062 12.645C248.685 13.0226 248.496 13.4979 248.496 14.0708C248.496 14.6307 248.685 15.1059 249.062 15.4966C249.453 15.8742 249.928 16.063 250.488 16.063H261.504C262.467 16.063 263.372 16.2452 264.219 16.6098C265.078 16.9744 265.82 17.4757 266.445 18.1137C267.083 18.7518 267.585 19.4939 267.949 20.3403C268.314 21.1867 268.496 22.0981 268.496 23.0747Z" fill="#8083FF"/>
<path d="M170.514 40.5508C170.242 40.5468 169.974 40.4826 169.73 40.3628C169.486 40.2429 169.271 40.0703 169.1 39.8573C168.542 39.1926 168.379 38.251 168.695 37.5149C168.87 37.1085 169.348 36.4159 170.587 36.3474C171.488 36.3011 172.253 37.039 172.409 38.1065C172.578 39.2611 171.97 40.2443 170.93 40.498C170.794 40.5323 170.654 40.55 170.514 40.5508ZM170.646 37.4316C170.144 37.4594 169.818 37.6325 169.687 37.9454C169.534 38.301 169.634 38.8102 169.925 39.1565C170.075 39.3351 170.327 39.5268 170.675 39.4444C171.445 39.2592 171.365 38.426 171.341 38.2667C171.277 37.8362 171.017 37.4112 170.646 37.4316Z" fill="#8083FF"/>
<path d="M170.366 44.0921C167.457 44.0921 165.09 41.6849 165.09 38.7222C165.09 35.7594 167.457 33.3522 170.366 33.3522C173.275 33.3522 175.642 35.7594 175.642 38.7222C175.642 41.6849 173.275 44.0921 170.366 44.0921ZM170.366 34.4438C168.053 34.4438 166.17 36.3649 166.17 38.7249C166.17 41.0849 168.053 43.006 170.366 43.006C172.68 43.006 174.562 41.0858 174.562 38.7249C174.562 36.364 172.68 34.4484 170.366 34.4484V34.4438Z" fill="#8083FF"/>
<path d="M168.938 43.9005C168.894 43.9004 168.85 43.8948 168.807 43.8839C166.623 43.3404 162.985 41.4609 163.208 37.8658C163.332 35.8466 164.605 34.0393 166.532 33.1486C168.6 32.1932 170.917 32.5005 172.886 34.0023C172.994 34.0913 173.063 34.2189 173.079 34.3582C173.096 34.4975 173.058 34.6377 172.974 34.7497C172.89 34.8616 172.766 34.9365 172.628 34.9587C172.49 34.9809 172.35 34.9487 172.235 34.8689C170.59 33.619 168.676 33.3514 166.98 34.1356C165.415 34.8587 164.383 36.3141 164.283 37.9316C164.104 40.8147 167.204 42.3673 169.064 42.8302C169.192 42.8627 169.303 42.9407 169.377 43.0497C169.452 43.1587 169.484 43.2912 169.468 43.4224C169.452 43.5536 169.389 43.6745 169.291 43.7625C169.193 43.8505 169.067 43.8996 168.935 43.9005H168.938Z" fill="#8083FF"/>
<path d="M166.736 33.9902C166.633 33.9902 166.532 33.9603 166.446 33.9041C166.386 33.8657 166.335 33.8158 166.294 33.7573C166.253 33.6989 166.225 33.6329 166.209 33.5633C166.194 33.4936 166.193 33.4216 166.205 33.3514C166.218 33.2812 166.244 33.2142 166.282 33.1541C166.482 32.8403 166.721 31.757 166.657 30.7034C166.654 30.5628 166.704 30.4262 166.799 30.3226C166.894 30.2189 167.025 30.1561 167.164 30.1475C167.304 30.1389 167.442 30.185 167.548 30.2763C167.655 30.3675 167.722 30.4967 167.736 30.6367C167.807 31.8079 167.574 33.1365 167.192 33.7402C167.143 33.8169 167.076 33.88 166.996 33.9237C166.916 33.9674 166.827 33.9902 166.736 33.9902Z" fill="#8083FF"/>
<path d="M169.532 33.7578C169.452 33.7581 169.373 33.7405 169.301 33.7064C169.229 33.6723 169.165 33.6225 169.115 33.5606C168.47 32.7792 168.608 31.1534 168.665 30.6729C168.687 30.5337 168.761 30.4084 168.873 30.3233C168.984 30.2382 169.124 30.2 169.264 30.2167C169.403 30.2334 169.53 30.3037 169.618 30.4128C169.707 30.5219 169.75 30.6612 169.738 30.8016C169.646 31.5691 169.69 32.5551 169.947 32.869C170.013 32.9483 170.054 33.0446 170.067 33.1468C170.08 33.249 170.064 33.3527 170.02 33.4459C169.977 33.5392 169.908 33.618 169.821 33.6732C169.735 33.7284 169.635 33.7578 169.532 33.7578Z" fill="#8083FF"/>
<path d="M168.47 41.2359C168.388 41.2361 168.309 41.2079 168.245 41.1563C167.048 40.1971 166.887 38.5241 167.804 36.6826C167.825 36.64 167.854 36.6021 167.89 36.5709C167.926 36.5397 167.968 36.5159 168.012 36.5009C168.057 36.4858 168.105 36.4798 168.152 36.4832C168.199 36.4866 168.245 36.4993 168.288 36.5205C168.33 36.5418 168.368 36.5713 168.399 36.6072C168.43 36.6432 168.453 36.6849 168.468 36.73C168.483 36.7752 168.489 36.8228 168.486 36.8703C168.483 36.9177 168.47 36.9641 168.449 37.0066C168.087 37.7334 167.387 39.5379 168.696 40.5915C168.755 40.638 168.799 40.7021 168.82 40.7748C168.842 40.8475 168.84 40.9252 168.815 40.9968C168.79 41.0684 168.744 41.1303 168.682 41.1739C168.62 41.2175 168.546 41.2405 168.471 41.2396L168.47 41.2359Z" fill="#8083FF"/>
<path d="M170.814 41.8479C170.648 41.8484 170.482 41.8282 170.321 41.7877C170.274 41.7772 170.229 41.7573 170.19 41.7293C170.151 41.7012 170.117 41.6655 170.092 41.6243C170.067 41.5831 170.05 41.5373 170.043 41.4895C170.035 41.4416 170.038 41.3928 170.049 41.3459C170.061 41.299 170.082 41.2549 170.111 41.2163C170.14 41.1776 170.177 41.1452 170.218 41.121C170.26 41.0968 170.306 41.0812 170.354 41.0751C170.402 41.0691 170.45 41.0728 170.496 41.0859C170.728 41.1381 170.969 41.1365 171.2 41.0813C171.247 41.0719 171.294 41.0718 171.341 41.081C171.387 41.0902 171.431 41.1085 171.471 41.1349C171.51 41.1612 171.544 41.1951 171.57 41.2346C171.597 41.2741 171.615 41.3184 171.624 41.3651C171.634 41.4117 171.634 41.4597 171.625 41.5064C171.616 41.553 171.597 41.5974 171.571 41.637C171.545 41.6766 171.511 41.7106 171.472 41.7371C171.433 41.7636 171.388 41.782 171.342 41.7914C171.168 41.8275 170.992 41.8464 170.814 41.8479Z" fill="#8083FF"/>
<path d="M141.643 41.1778C141.494 41.1777 141.346 41.1596 141.202 41.1238C140.099 40.8548 139.455 39.8112 139.634 38.5869C139.8 37.4539 140.615 36.6695 141.564 36.7215C142.879 36.7942 143.386 37.5286 143.572 37.9596C143.907 38.745 143.735 39.7376 143.143 40.4425C142.962 40.6685 142.734 40.8516 142.475 40.9787C142.216 41.1058 141.932 41.1738 141.643 41.1778ZM141.476 37.8702C141.095 37.8702 140.832 38.3101 140.766 38.7538C140.741 38.9276 140.656 39.8043 141.472 40.0036C141.842 40.0939 142.109 39.8878 142.267 39.6983C142.576 39.3311 142.682 38.7911 142.52 38.4141C142.378 38.0823 142.032 37.8987 141.503 37.8692L141.476 37.8702Z" fill="#8083FF"/>
<path d="M141.8 44.9331C138.716 44.9331 136.206 42.3805 136.206 39.2388C136.206 36.0971 138.716 33.5445 141.8 33.5445C144.885 33.5445 147.395 36.0971 147.395 39.2388C147.395 42.3805 144.885 44.9331 141.8 44.9331ZM141.8 34.702C139.346 34.702 137.351 36.7392 137.351 39.2417C137.351 41.7443 139.346 43.7815 141.8 43.7815C144.254 43.7815 146.249 41.7443 146.249 39.2417C146.249 36.7392 144.253 34.702 141.8 34.702Z" fill="#8083FF"/>
<path d="M143.314 44.7299C143.174 44.73 143.038 44.6786 142.933 44.5853C142.828 44.4919 142.761 44.3631 142.744 44.2233C142.727 44.0834 142.762 43.9422 142.841 43.8262C142.921 43.7102 143.04 43.6276 143.176 43.5939C145.149 43.1031 148.437 41.4576 148.247 38.4003C148.142 36.6822 147.045 35.1389 145.386 34.375C143.589 33.5444 141.559 33.8272 139.82 35.1516C139.76 35.1972 139.692 35.2305 139.619 35.2495C139.546 35.2685 139.47 35.273 139.396 35.2626C139.322 35.2522 139.25 35.2272 139.185 35.1889C139.12 35.1507 139.063 35.1 139.018 35.0397C138.973 34.9794 138.94 34.9108 138.921 34.8376C138.902 34.7645 138.897 34.6883 138.908 34.6135C138.918 34.5386 138.943 34.4666 138.981 34.4014C139.019 34.3362 139.07 34.2792 139.129 34.2337C141.22 32.6451 143.677 32.3153 145.867 33.3285C147.91 34.2719 149.262 36.1894 149.393 38.3355C149.63 42.1507 145.772 44.1428 143.454 44.7171C143.408 44.7273 143.361 44.7316 143.314 44.7299Z" fill="#8083FF"/>
<path d="M144.349 33.7251C144.316 33.7255 144.284 33.7229 144.251 33.7172C144.102 33.6908 143.97 33.6062 143.883 33.4818C143.796 33.3575 143.761 33.2035 143.787 33.0535L144.189 30.6276C144.214 30.4769 144.297 30.3424 144.421 30.2537C144.545 30.1649 144.698 30.1292 144.848 30.1543C144.998 30.1795 145.132 30.2634 145.22 30.3877C145.309 30.512 145.344 30.6664 145.319 30.817L144.917 33.243C144.895 33.3781 144.825 33.5008 144.721 33.5892C144.617 33.6775 144.485 33.7257 144.349 33.7251Z" fill="#8083FF"/>
<path d="M146.41 34.484C146.326 34.4835 146.243 34.4643 146.166 34.4278C146.09 34.3913 146.022 34.3384 145.969 34.2729C145.915 34.2073 145.876 34.1307 145.855 34.0484C145.834 33.9662 145.831 33.8803 145.847 33.7968L146.35 31.1195C146.383 30.9739 146.47 30.8467 146.594 30.7647C146.718 30.6827 146.869 30.6524 147.015 30.68C147.161 30.7076 147.291 30.791 147.377 30.9127C147.463 31.0344 147.498 31.1849 147.476 31.3325L146.973 34.0108C146.949 34.1433 146.88 34.2632 146.777 34.3497C146.674 34.4361 146.544 34.4837 146.41 34.484Z" fill="#8083FF"/>
<path d="M141.817 42.4904C140.631 42.4904 139.389 41.8571 138.856 40.9195C138.806 40.831 138.792 40.7261 138.819 40.6278C138.846 40.5296 138.911 40.4461 138.999 40.3957C139.087 40.3453 139.191 40.3322 139.289 40.3592C139.387 40.3861 139.47 40.451 139.52 40.5396C139.986 41.3652 141.249 41.8885 142.275 41.6824C142.373 41.6677 142.472 41.6913 142.552 41.7482C142.633 41.805 142.688 41.8908 142.707 41.9878C142.727 42.0847 142.708 42.1854 142.655 42.2689C142.603 42.3525 142.52 42.4124 142.425 42.4364C142.225 42.4741 142.021 42.4922 141.817 42.4904Z" fill="#8083FF"/>
<path d="M144.326 40.3069C144.246 40.307 144.168 40.2821 144.103 40.2355C144.039 40.189 143.99 40.1233 143.964 40.0476C143.938 39.9718 143.937 39.8898 143.959 39.8131C143.982 39.7364 144.028 39.6688 144.091 39.6197C144.395 39.3831 144.315 39.0306 144.267 38.8971C144.248 38.8491 144.239 38.7978 144.241 38.7463C144.242 38.6948 144.254 38.6441 144.275 38.5972C144.297 38.5503 144.327 38.5082 144.365 38.4734C144.403 38.4386 144.447 38.4119 144.496 38.3947C144.544 38.3776 144.595 38.3704 144.646 38.3736C144.698 38.3768 144.748 38.3904 144.793 38.4134C144.839 38.4365 144.88 38.4686 144.913 38.5078C144.947 38.5471 144.972 38.5926 144.987 38.6418C145.199 39.2476 145.035 39.8553 144.56 40.2264C144.493 40.2785 144.411 40.3068 144.326 40.3069Z" fill="#8083FF"/>
</svg>
